<svg t="1650549831557" class="icon" viewBox="0 0 1024 1024" version="1.1" xmlns="http://www.w3.org/2000/svg" p-id="2197" width="200" height="200"><path d="M618.464 699.36l-14.272 69.76h191.232c49.952-1.056 58.272-21.568 73.728-72.928l59.008-279.488H469.856L392 826.112c-7.04 46.048 13.696 69.12 62.016 69.12h382.72l89.984-62.112H566.112c-27.2 5.152-36.192-10.88-27.136-41.568l61.632-311.488h174.688l-38.944 187.328c-9.568 26.432-18.88 30.56-48.32 32h-69.568zM387.712 482.176l34.208-7.648 22.176-101.312-34.144 7.648 13.6-98.112h31.68l10.56-73.728H434.08l10.528-49.056H286.464l-10.56 49.056H180.96l-10.592 73.728h94.976l-21.12 147.392-99.744 27.488-22.112 101.312 99.68-26.848-32.48 259.424c-0.288 30.688-12.128 43.52-35.52 38.368H88.096L32.128 895.2h237.28c45.376 5.056 69.632-16.672 72.544-65.312l45.76-347.712z m187.52-322.208l-95.68 224.576H606.08l79.488-150.912h60.256l36.416 150.912h143.52l-53.408-224.576h-297.12z" p-id="2198"></path></svg>